<?xml version="1.0" encoding="utf-8"?>
<svg xmlns="http://www.w3.org/2000/svg" xmlns:xlink="http://www.w3.org/1999/xlink" width="1500" height="500" viewBox="0 0 6000 2000">
<defs>
  <clipPath id="clip370">
    <rect x="0" y="0" width="6000" height="2000"/>
  </clipPath>
</defs>
<path clip-path="url(#clip370)" d="M0 2000 L6000 2000 L6000 0 L0 0  Z" fill="#ffffff" fill-rule="evenodd" fill-opacity="1"/>
<defs>
  <clipPath id="clip371">
    <rect x="1200" y="0" width="4201" height="2000"/>
  </clipPath>
</defs>
<path clip-path="url(#clip370)" d="M229.936 1899.73 L1952.76 1899.73 L1952.76 47.2441 L229.936 47.2441  Z" fill="#ffffff" fill-rule="evenodd" fill-opacity="1"/>
<defs>
  <clipPath id="clip372">
    <rect x="229" y="47" width="1724" height="1853"/>
  </clipPath>
</defs>
<polyline clip-path="url(#clip372)" style="stroke:#009af9; stroke-linecap:round; stroke-linejoin:round; stroke-width:4; stroke-opacity:1; fill:none" points="229.936,1436.61 1952.76,510.365 "/>
<polyline clip-path="url(#clip372)" style="stroke:#000000; stroke-linecap:round; stroke-linejoin:round; stroke-width:12; stroke-opacity:1; fill:none" points="402.218,1343.98 1177.49,325.117 "/>
<polyline clip-path="url(#clip372)" style="stroke:#000000; stroke-linecap:round; stroke-linejoin:round; stroke-width:12; stroke-opacity:1; fill:none" points="1087.18,369.49 1177.49,325.117 1158.8,423.989 "/>
<polyline clip-path="url(#clip372)" style="stroke:#000000; stroke-linecap:round; stroke-linejoin:round; stroke-width:12; stroke-opacity:1; fill:none" points="1177.49,325.117 402.218,1343.98 "/>
<circle clip-path="url(#clip372)" cx="402.218" cy="1343.98" r="14.4" fill="#000000" fill-rule="evenodd" fill-opacity="1" stroke="none"/>
<circle clip-path="url(#clip372)" cx="1177.49" cy="325.117" r="14.4" fill="#000000" fill-rule="evenodd" fill-opacity="1" stroke="none"/>
<polyline clip-path="url(#clip372)" style="stroke:#a52a2a; stroke-linecap:round; stroke-linejoin:round; stroke-width:12; stroke-opacity:1; fill:none" points="402.218,1343.98 1401.45,806.762 "/>
<polyline clip-path="url(#clip372)" style="stroke:#a52a2a; stroke-linecap:round; stroke-linejoin:round; stroke-width:12; stroke-opacity:1; fill:none" points="1300.87,809.745 1401.45,806.762 1343.49,889.015 "/>
<polyline clip-path="url(#clip372)" style="stroke:#a52a2a; stroke-linecap:round; stroke-linejoin:round; stroke-width:12; stroke-opacity:1; fill:none" points="1401.45,806.762 402.218,1343.98 "/>
<polyline clip-path="url(#clip372)" style="stroke:#ff0000; stroke-linecap:round; stroke-linejoin:round; stroke-width:12; stroke-opacity:1; fill:none" points="402.218,1343.98 832.923,1112.42 "/>
<polyline clip-path="url(#clip372)" style="stroke:#ff0000; stroke-linecap:round; stroke-linejoin:round; stroke-width:12; stroke-opacity:1; fill:none" points="732.344,1115.41 832.923,1112.42 774.962,1194.68 "/>
<polyline clip-path="url(#clip372)" style="stroke:#ff0000; stroke-linecap:round; stroke-linejoin:round; stroke-width:12; stroke-opacity:1; fill:none" points="832.923,1112.42 402.218,1343.98 "/>
<polyline clip-path="url(#clip372)" style="stroke:#a52a2a; stroke-linecap:round; stroke-linejoin:round; stroke-width:4; stroke-opacity:1; fill:none" stroke-dasharray="16, 10" points="1177.49,325.117 1401.45,806.762 "/>
<polyline clip-path="url(#clip372)" style="stroke:#a52a2a; stroke-linecap:round; stroke-linejoin:round; stroke-width:12; stroke-opacity:1; fill:none" points="787.452,1136.87 784.379,1130.39 781.212,1123.96 777.951,1117.59 774.598,1111.27 771.152,1105.01 767.616,1098.81 763.989,1092.66 760.273,1086.59 756.469,1080.57 752.577,1074.62 748.599,1068.73 744.536,1062.92 740.388,1057.17 736.156,1051.5 731.843,1045.89 727.447,1040.36 722.972,1034.91 718.418,1029.53 713.785,1024.22 709.076,1019 704.29,1013.86 699.431,1008.8 694.498,1003.82 689.493,998.926 684.417,994.116 679.271,989.393 "/>
<polyline clip-path="url(#clip372)" style="stroke:#000000; stroke-linecap:round; stroke-linejoin:round; stroke-width:12; stroke-opacity:1; fill:none" points="402.218,1343.98 1177.49,325.117 "/>
<polyline clip-path="url(#clip372)" style="stroke:#000000; stroke-linecap:round; stroke-linejoin:round; stroke-width:12; stroke-opacity:1; fill:none" points="1087.18,369.49 1177.49,325.117 1158.8,423.989 "/>
<polyline clip-path="url(#clip372)" style="stroke:#000000; stroke-linecap:round; stroke-linejoin:round; stroke-width:12; stroke-opacity:1; fill:none" points="1177.49,325.117 402.218,1343.98 "/>
<circle clip-path="url(#clip372)" cx="402.218" cy="1343.98" r="21.6" fill="#000000" fill-rule="evenodd" fill-opacity="1" stroke="none"/>
<circle clip-path="url(#clip372)" cx="1177.49" cy="325.117" r="21.6" fill="#000000" fill-rule="evenodd" fill-opacity="1" stroke="none"/>
<path clip-path="url(#clip370)" d="M423.927 1163.34 L396.665 1163.34 L396.665 1160.98 L423.927 1160.98 L423.927 1163.34 Z" fill="#000000" fill-rule="nonzero" fill-opacity="1" /><path clip-path="url(#clip370)" d="M446.96 1248.63 Q442.849 1248.31 427.671 1248.31 Q412.441 1248.31 408.33 1248.63 L408.33 1243.57 L419.977 1243.57 L419.977 1212.69 L385.353 1212.69 L385.353 1243.57 L397 1243.57 L397 1248.63 Q392.889 1248.31 377.659 1248.31 Q362.481 1248.31 358.37 1248.63 L358.37 1243.57 L370.017 1243.57 L370.017 1179.64 L358.37 1179.64 L358.37 1174.58 Q362.481 1174.9 377.659 1174.9 Q392.889 1174.9 397 1174.58 L397 1179.64 L385.353 1179.64 L385.353 1207.63 L419.977 1207.63 L419.977 1179.64 L408.33 1179.64 L408.33 1174.58 Q412.441 1174.9 427.671 1174.9 Q442.849 1174.9 446.96 1174.58 L446.96 1179.64 L435.313 1179.64 L435.313 1243.57 L446.96 1243.57 L446.96 1248.63 Z" fill="#000000" fill-rule="nonzero" fill-opacity="1" /><path clip-path="url(#clip370)" d="M1199.1 190.787 L1171.84 190.787 L1171.84 188.426 L1199.1 188.426 L1199.1 190.787 Z" fill="#000000" fill-rule="nonzero" fill-opacity="1" /><path clip-path="url(#clip370)" d="M1214.66 223.058 Q1214.66 229.224 1210.87 233.967 Q1207.13 238.657 1200.86 241.082 Q1194.64 243.506 1187.1 243.506 L1168.02 243.506 L1168.02 271.015 L1179.67 271.015 L1179.67 276.075 Q1175.56 275.759 1160.33 275.759 Q1145.15 275.759 1141.04 276.075 L1141.04 271.015 L1152.69 271.015 L1152.69 207.09 L1141.04 207.09 L1141.04 202.031 L1186.05 202.031 Q1199.17 202.031 1206.92 207.986 Q1214.66 213.941 1214.66 223.058 M1198.12 223.058 Q1198.12 221.319 1198.06 220.476 Q1198.06 219.58 1197.91 217.946 Q1197.8 216.312 1197.48 215.469 Q1197.22 214.573 1196.69 213.256 Q1196.17 211.938 1195.32 211.2 Q1194.53 210.41 1193.32 209.514 Q1192.11 208.618 1190.53 208.196 Q1188.95 207.722 1186.73 207.406 Q1184.57 207.09 1181.94 207.09 L1167.39 207.09 L1167.39 239.079 L1181.83 239.079 Q1184.47 239.079 1186.63 238.763 Q1188.84 238.447 1190.42 237.972 Q1192.06 237.498 1193.27 236.602 Q1194.53 235.706 1195.32 234.968 Q1196.11 234.178 1196.64 232.86 Q1197.22 231.543 1197.48 230.647 Q1197.8 229.751 1197.91 228.17 Q1198.06 226.536 1198.06 225.64 Q1198.12 224.744 1198.12 223.058 Z" fill="#000000" fill-rule="nonzero" fill-opacity="1" /><path clip-path="url(#clip370)" d="M811.347 607.596 L784.085 607.596 L784.085 605.235 L811.347 605.235 L811.347 607.596 Z" fill="#000000" fill-rule="nonzero" fill-opacity="1" /><path clip-path="url(#clip370)" d="M832.242 656.52 Q832.242 667.798 827.288 676.125 Q822.334 684.452 813.902 688.668 Q805.523 692.884 794.825 692.884 L748.29 692.884 L748.29 687.824 L759.937 687.824 L759.937 623.899 L748.29 623.899 L748.29 618.839 L794.719 618.839 Q802.73 618.839 809.581 621.422 Q816.484 624.004 821.491 628.747 Q826.55 633.49 829.396 640.657 Q832.242 647.772 832.242 656.52 M816.379 656.415 Q816.379 648.246 815.378 642.818 Q814.429 637.39 811.741 633.543 Q808.105 628.378 802.361 626.165 Q796.616 623.899 790.398 623.899 L774.64 623.899 L774.64 687.824 L790.398 687.824 Q794.192 687.824 797.723 687.139 Q801.307 686.454 805.259 684.346 Q809.212 682.185 811.636 678.76 Q814.271 675.124 815.325 670.17 Q816.379 665.163 816.379 656.415 Z" fill="#000000" fill-rule="nonzero" fill-opacity="1" /><path clip-path="url(#clip370)" d="M638.181 1294.25 L637.258 1295.76 Q631.54 1293.29 624.421 1289.34 Q617.301 1293.29 611.583 1295.76 L610.697 1294.25 Q616.932 1288.82 624.421 1284.66 Q631.983 1288.86 638.181 1294.25 Z" fill="#ff0000" fill-rule="nonzero" fill-opacity="1" /><path clip-path="url(#clip370)" d="M648.656 1355.83 L629.526 1356.47 L629.526 1348.09 Q624.624 1356.47 613.979 1356.47 Q609.605 1356.47 606.337 1355.89 Q603.123 1355.31 600.277 1353.88 Q597.484 1352.41 596.008 1349.56 Q594.532 1346.72 594.532 1342.55 L594.532 1317.41 Q594.532 1314.36 593.426 1313.78 Q592.319 1313.2 587.102 1313.2 L587.102 1308.14 L606.864 1307.24 L606.864 1344.08 Q606.864 1346.66 607.023 1347.98 Q607.233 1349.25 608.024 1350.51 Q608.867 1351.72 610.659 1352.2 Q612.451 1352.62 615.507 1352.62 Q621.462 1352.62 625.151 1348.61 Q628.893 1344.61 628.893 1338.02 L628.893 1317.41 Q628.893 1314.36 627.734 1313.78 Q626.627 1313.2 621.41 1313.2 L621.41 1308.14 L641.172 1307.24 L641.172 1346.56 Q641.172 1349.61 642.279 1350.19 Q643.439 1350.77 648.656 1350.77 L648.656 1355.83 Z" fill="#ff0000" fill-rule="nonzero" fill-opacity="1" /><path clip-path="url(#clip370)" d="M960.427 1170.51 L940.664 1171.14 L940.664 1165.87 Q934.129 1171.14 925.539 1171.14 Q913.734 1171.14 906.672 1164.35 Q899.663 1157.49 899.663 1146.64 Q899.663 1135.36 907.199 1128.67 Q914.788 1121.92 926.751 1121.92 Q935.025 1121.92 941.297 1126.82 L941.297 1105.74 Q941.297 1102.69 940.19 1102.11 Q939.083 1101.53 933.866 1101.53 L933.866 1096.47 L952.996 1095.62 L952.996 1161.24 Q952.996 1164.29 954.103 1164.87 Q955.209 1165.45 960.427 1165.45 L960.427 1170.51 M940.664 1159.39 L940.664 1132.41 Q938.556 1129.67 935.289 1127.77 Q932.021 1125.82 927.805 1125.82 Q924.696 1125.82 921.534 1127.14 Q918.372 1128.4 916.264 1131.46 Q914.946 1133.41 914.261 1136.31 Q913.629 1139.21 913.523 1141.16 Q913.471 1143.11 913.471 1146.64 Q913.471 1148.38 913.471 1149.38 Q913.523 1150.33 913.629 1152.28 Q913.734 1154.17 913.945 1155.39 Q914.156 1156.6 914.63 1158.34 Q915.104 1160.08 915.737 1161.18 Q916.369 1162.29 917.371 1163.61 Q918.372 1164.87 919.637 1165.61 Q920.954 1166.3 922.693 1166.82 Q924.485 1167.3 926.646 1167.3 Q934.92 1167.3 940.664 1159.39 Z" fill="#a52a2a" fill-rule="nonzero" fill-opacity="1" /><path clip-path="url(#clip370)" d="M1033.48 1085.22 L1006.22 1085.22 L1006.22 1082.86 L1033.48 1082.86 L1033.48 1085.22 Z" fill="#a52a2a" fill-rule="nonzero" fill-opacity="1" /><path clip-path="url(#clip370)" d="M1056.51 1170.51 Q1052.4 1170.2 1037.22 1170.2 Q1021.99 1170.2 1017.88 1170.51 L1017.88 1165.45 L1029.53 1165.45 L1029.53 1134.57 L994.904 1134.57 L994.904 1165.45 L1006.55 1165.45 L1006.55 1170.51 Q1002.44 1170.2 987.21 1170.2 Q972.032 1170.2 967.921 1170.51 L967.921 1165.45 L979.568 1165.45 L979.568 1101.53 L967.921 1101.53 L967.921 1096.47 Q972.032 1096.78 987.21 1096.78 Q1002.44 1096.78 1006.55 1096.47 L1006.55 1101.53 L994.904 1101.53 L994.904 1129.51 L1029.53 1129.51 L1029.53 1101.53 L1017.88 1101.53 L1017.88 1096.47 Q1021.99 1096.78 1037.22 1096.78 Q1052.4 1096.78 1056.51 1096.47 L1056.51 1101.53 L1044.86 1101.53 L1044.86 1165.45 L1056.51 1165.45 L1056.51 1170.51 Z" fill="#a52a2a" fill-rule="nonzero" fill-opacity="1" /><path clip-path="url(#clip370)" d="M845.567 960.296 Q845.567 969.15 842.722 979.11 Q839.929 989.018 835.502 997.028 Q831.075 1004.99 825.278 1010.26 Q819.481 1015.47 813.947 1015.47 Q810.416 1015.47 807.781 1013.52 Q805.199 1011.52 803.776 1008.2 Q802.353 1004.83 801.668 1001.14 Q800.983 997.397 800.983 993.339 Q800.983 987.279 802.3 980.691 Q803.618 974.051 805.831 968.043 Q808.045 961.982 811.154 956.502 Q814.263 950.968 817.689 946.963 Q821.167 942.905 825.067 940.533 Q828.967 938.162 832.603 938.162 Q835.238 938.162 837.346 939.321 Q839.507 940.428 840.877 942.378 Q842.247 944.275 843.196 946.541 Q844.197 948.807 844.672 951.442 Q845.146 954.025 845.357 956.185 Q845.567 958.293 845.567 960.296 M838.453 953.603 Q838.453 950.915 838.242 948.913 Q838.031 946.857 837.452 944.802 Q836.872 942.747 835.607 941.64 Q834.395 940.533 832.498 940.533 Q826.964 940.533 820.746 951.864 Q818.743 955.395 816.951 960.191 Q815.159 964.986 814.527 967.252 Q813.894 969.519 812.419 975.105 L834.975 975.105 Q838.453 960.718 838.453 953.603 M834.026 978.53 L811.576 978.53 Q808.097 991.705 808.097 999.927 Q808.097 1007.09 809.573 1010.1 Q811.101 1013.05 813.947 1013.05 Q817.215 1013.05 820.271 1009.78 Q823.328 1006.46 826.437 1000.45 Q830.548 992.654 834.026 978.53 Z" fill="#a52a2a" fill-rule="nonzero" fill-opacity="1" /><path clip-path="url(#clip370)" d="M209.207 59.9871 Q193.721 59.9871 187.749 63.5287 Q181.777 67.0704 181.777 75.612 Q181.777 82.4175 186.221 86.4453 Q190.735 90.4036 198.443 90.4036 Q209.068 90.4036 215.457 82.9036 Q221.915 75.3342 221.915 62.8343 L221.915 59.9871 L209.207 59.9871 M234.693 54.7093 L234.693 99.0841 L221.915 99.0841 L221.915 87.2786 Q217.54 94.3619 211.012 97.7647 Q204.485 101.098 195.04 101.098 Q183.096 101.098 176.013 94.4313 Q168.999 87.6953 168.999 76.4453 Q168.999 63.3204 177.749 56.6538 Q186.568 49.9871 203.999 49.9871 L221.915 49.9871 L221.915 48.7371 Q221.915 39.9177 216.082 35.1261 Q210.318 30.265 199.832 30.265 Q193.165 30.265 186.846 31.8622 Q180.527 33.4594 174.693 36.6539 L174.693 24.8484 Q181.707 22.1401 188.304 20.8206 Q194.901 19.4317 201.151 19.4317 Q218.026 19.4317 226.36 28.1817 Q234.693 36.9316 234.693 54.7093 Z" fill="#000000" fill-rule="nonzero" fill-opacity="1" /><path clip-path="url(#clip370)" d="M258.998 -8.83199 L270.109 -8.83199 Q280.526 7.55681 285.665 23.2512 Q290.873 38.9455 290.873 54.4316 Q290.873 69.987 285.665 85.7508 Q280.526 101.515 270.109 117.834 L258.998 117.834 Q268.234 101.931 272.748 86.2369 Q277.332 70.4731 277.332 54.4316 Q277.332 38.39 272.748 22.7651 Q268.234 7.14014 258.998 -8.83199 Z" fill="#000000" fill-rule="nonzero" fill-opacity="1" /><path clip-path="url(#clip370)" d="M2229.94 1899.73 L3952.76 1899.73 L3952.76 47.2441 L2229.94 47.2441  Z" fill="#ffffff" fill-rule="evenodd" fill-opacity="1"/>
<defs>
  <clipPath id="clip373">
    <rect x="2229" y="47" width="1724" height="1853"/>
  </clipPath>
</defs>
<polyline clip-path="url(#clip373)" style="stroke:#009af9; stroke-linecap:round; stroke-linejoin:round; stroke-width:4; stroke-opacity:1; fill:none" points="2229.94,1436.61 3952.76,510.365 "/>
<polyline clip-path="url(#clip373)" style="stroke:#000000; stroke-linecap:round; stroke-linejoin:round; stroke-width:12; stroke-opacity:1; fill:none" points="2402.22,1343.98 3177.49,325.117 "/>
<polyline clip-path="url(#clip373)" style="stroke:#000000; stroke-linecap:round; stroke-linejoin:round; stroke-width:12; stroke-opacity:1; fill:none" points="3087.18,369.49 3177.49,325.117 3158.8,423.989 "/>
<polyline clip-path="url(#clip373)" style="stroke:#000000; stroke-linecap:round; stroke-linejoin:round; stroke-width:12; stroke-opacity:1; fill:none" points="3177.49,325.117 2402.22,1343.98 "/>
<circle clip-path="url(#clip373)" cx="2402.22" cy="1343.98" r="14.4" fill="#000000" fill-rule="evenodd" fill-opacity="1" stroke="none"/>
<circle clip-path="url(#clip373)" cx="3177.49" cy="325.117" r="14.4" fill="#000000" fill-rule="evenodd" fill-opacity="1" stroke="none"/>
<polyline clip-path="url(#clip373)" style="stroke:#a52a2a; stroke-linecap:round; stroke-linejoin:round; stroke-width:12; stroke-opacity:1; fill:none" points="2402.22,1343.98 3401.45,806.762 "/>
<polyline clip-path="url(#clip373)" style="stroke:#a52a2a; stroke-linecap:round; stroke-linejoin:round; stroke-width:12; stroke-opacity:1; fill:none" points="3300.87,809.745 3401.45,806.762 3343.49,889.015 "/>
<polyline clip-path="url(#clip373)" style="stroke:#a52a2a; stroke-linecap:round; stroke-linejoin:round; stroke-width:12; stroke-opacity:1; fill:none" points="3401.45,806.762 2402.22,1343.98 "/>
<polyline clip-path="url(#clip373)" style="stroke:#ff0000; stroke-linecap:round; stroke-linejoin:round; stroke-width:12; stroke-opacity:1; fill:none" points="2402.22,1343.98 2832.92,1112.42 "/>
<polyline clip-path="url(#clip373)" style="stroke:#ff0000; stroke-linecap:round; stroke-linejoin:round; stroke-width:12; stroke-opacity:1; fill:none" points="2732.34,1115.41 2832.92,1112.42 2774.96,1194.68 "/>
<polyline clip-path="url(#clip373)" style="stroke:#ff0000; stroke-linecap:round; stroke-linejoin:round; stroke-width:12; stroke-opacity:1; fill:none" points="2832.92,1112.42 2402.22,1343.98 "/>
<polyline clip-path="url(#clip373)" style="stroke:#000000; stroke-linecap:round; stroke-linejoin:round; stroke-width:12; stroke-opacity:1; fill:none" points="2402.22,1343.98 3177.49,325.117 "/>
<polyline clip-path="url(#clip373)" style="stroke:#000000; stroke-linecap:round; stroke-linejoin:round; stroke-width:12; stroke-opacity:1; fill:none" points="3087.18,369.49 3177.49,325.117 3158.8,423.989 "/>
<polyline clip-path="url(#clip373)" style="stroke:#000000; stroke-linecap:round; stroke-linejoin:round; stroke-width:12; stroke-opacity:1; fill:none" points="3177.49,325.117 2402.22,1343.98 "/>
<circle clip-path="url(#clip373)" cx="2402.22" cy="1343.98" r="21.6" fill="#000000" fill-rule="evenodd" fill-opacity="1" stroke="none"/>
<circle clip-path="url(#clip373)" cx="3177.49" cy="325.117" r="21.6" fill="#000000" fill-rule="evenodd" fill-opacity="1" stroke="none"/>
<circle clip-path="url(#clip373)" cx="3401.45" cy="806.762" r="21.6" fill="#0000ff" fill-rule="evenodd" fill-opacity="1" stroke="#000000" stroke-opacity="1" stroke-width="4"/>
<path clip-path="url(#clip370)" d="M2423.93 1163.34 L2396.67 1163.34 L2396.67 1160.98 L2423.93 1160.98 L2423.93 1163.34 Z" fill="#000000" fill-rule="nonzero" fill-opacity="1" /><path clip-path="url(#clip370)" d="M2446.96 1248.63 Q2442.85 1248.31 2427.67 1248.31 Q2412.44 1248.31 2408.33 1248.63 L2408.33 1243.57 L2419.98 1243.57 L2419.98 1212.69 L2385.35 1212.69 L2385.35 1243.57 L2397 1243.57 L2397 1248.63 Q2392.89 1248.31 2377.66 1248.31 Q2362.48 1248.31 2358.37 1248.63 L2358.37 1243.57 L2370.02 1243.57 L2370.02 1179.64 L2358.37 1179.64 L2358.37 1174.58 Q2362.48 1174.9 2377.66 1174.9 Q2392.89 1174.9 2397 1174.58 L2397 1179.64 L2385.35 1179.64 L2385.35 1207.63 L2419.98 1207.63 L2419.98 1179.64 L2408.33 1179.64 L2408.33 1174.58 Q2412.44 1174.9 2427.67 1174.9 Q2442.85 1174.9 2446.96 1174.58 L2446.96 1179.64 L2435.31 1179.64 L2435.31 1243.57 L2446.96 1243.57 L2446.96 1248.63 Z" fill="#000000" fill-rule="nonzero" fill-opacity="1" /><path clip-path="url(#clip370)" d="M3551.51 763.787 L3524.25 763.787 L3524.25 761.426 L3551.51 761.426 L3551.51 763.787 Z" fill="#0000ff" fill-rule="nonzero" fill-opacity="1" /><path clip-path="url(#clip370)" d="M3552.04 851.614 Q3547.93 851.298 3532.75 851.298 Q3517.52 851.298 3513.41 851.614 L3513.41 846.555 L3525.06 846.555 L3525.06 815.672 L3490.44 815.672 L3490.44 846.555 L3502.08 846.555 L3502.08 851.614 Q3497.97 851.298 3482.74 851.298 Q3467.56 851.298 3463.45 851.614 L3463.45 846.555 L3475.1 846.555 L3475.1 782.629 L3463.45 782.629 L3463.45 777.57 Q3467.56 777.886 3482.74 777.886 Q3497.97 777.886 3502.08 777.57 L3502.08 782.629 L3490.44 782.629 L3490.44 810.613 L3525.06 810.613 L3525.06 782.629 L3513.41 782.629 L3513.41 777.57 Q3517.52 777.886 3532.75 777.886 Q3547.93 777.886 3552.04 777.57 L3552.04 782.629 L3540.4 782.629 L3540.4 846.555 L3552.04 846.555 L3552.04 851.614 Z" fill="#0000ff" fill-rule="nonzero" fill-opacity="1" /><path clip-path="url(#clip370)" d="M3568.18 779.942 Q3568.18 777.254 3569.82 776.147 Q3571.45 774.988 3573.19 774.988 Q3575.35 774.988 3576.72 776.305 Q3578.14 777.57 3578.14 779.942 Q3578.14 780.996 3578.04 781.575 L3574.46 814.144 L3571.98 814.144 L3568.29 781.575 Q3568.18 780.996 3568.18 779.942 Z" fill="#0000ff" fill-rule="nonzero" fill-opacity="1" /><path clip-path="url(#clip370)" d="M3199.1 190.787 L3171.84 190.787 L3171.84 188.426 L3199.1 188.426 L3199.1 190.787 Z" fill="#000000" fill-rule="nonzero" fill-opacity="1" /><path clip-path="url(#clip370)" d="M3214.66 223.058 Q3214.66 229.224 3210.87 233.967 Q3207.13 238.657 3200.86 241.082 Q3194.64 243.506 3187.1 243.506 L3168.02 243.506 L3168.02 271.015 L3179.67 271.015 L3179.67 276.075 Q3175.56 275.759 3160.33 275.759 Q3145.15 275.759 3141.04 276.075 L3141.04 271.015 L3152.69 271.015 L3152.69 207.09 L3141.04 207.09 L3141.04 202.031 L3186.05 202.031 Q3199.17 202.031 3206.92 207.986 Q3214.66 213.941 3214.66 223.058 M3198.12 223.058 Q3198.12 221.319 3198.06 220.476 Q3198.06 219.58 3197.91 217.946 Q3197.8 216.312 3197.48 215.469 Q3197.22 214.573 3196.69 213.256 Q3196.17 211.938 3195.32 211.2 Q3194.53 210.41 3193.32 209.514 Q3192.11 208.618 3190.53 208.196 Q3188.95 207.722 3186.73 207.406 Q3184.57 207.09 3181.94 207.09 L3167.39 207.09 L3167.39 239.079 L3181.83 239.079 Q3184.47 239.079 3186.63 238.763 Q3188.84 238.447 3190.42 237.972 Q3192.06 237.498 3193.27 236.602 Q3194.53 235.706 3195.32 234.968 Q3196.11 234.178 3196.64 232.86 Q3197.22 231.543 3197.48 230.647 Q3197.8 229.751 3197.91 228.17 Q3198.06 226.536 3198.06 225.64 Q3198.12 224.744 3198.12 223.058 Z" fill="#000000" fill-rule="nonzero" fill-opacity="1" /><path clip-path="url(#clip370)" d="M2811.35 607.596 L2784.08 607.596 L2784.08 605.235 L2811.35 605.235 L2811.35 607.596 Z" fill="#000000" fill-rule="nonzero" fill-opacity="1" /><path clip-path="url(#clip370)" d="M2832.24 656.52 Q2832.24 667.798 2827.29 676.125 Q2822.33 684.452 2813.9 688.668 Q2805.52 692.884 2794.82 692.884 L2748.29 692.884 L2748.29 687.824 L2759.94 687.824 L2759.94 623.899 L2748.29 623.899 L2748.29 618.839 L2794.72 618.839 Q2802.73 618.839 2809.58 621.422 Q2816.48 624.004 2821.49 628.747 Q2826.55 633.49 2829.4 640.657 Q2832.24 647.772 2832.24 656.52 M2816.38 656.415 Q2816.38 648.246 2815.38 642.818 Q2814.43 637.39 2811.74 633.543 Q2808.11 628.378 2802.36 626.165 Q2796.62 623.899 2790.4 623.899 L2774.64 623.899 L2774.64 687.824 L2790.4 687.824 Q2794.19 687.824 2797.72 687.139 Q2801.31 686.454 2805.26 684.346 Q2809.21 682.185 2811.64 678.76 Q2814.27 675.124 2815.33 670.17 Q2816.38 665.163 2816.38 656.415 Z" fill="#000000" fill-rule="nonzero" fill-opacity="1" /><path clip-path="url(#clip370)" d="M2638.18 1294.25 L2637.26 1295.76 Q2631.54 1293.29 2624.42 1289.34 Q2617.3 1293.29 2611.58 1295.76 L2610.7 1294.25 Q2616.93 1288.82 2624.42 1284.66 Q2631.98 1288.86 2638.18 1294.25 Z" fill="#ff0000" fill-rule="nonzero" fill-opacity="1" /><path clip-path="url(#clip370)" d="M2648.66 1355.83 L2629.53 1356.47 L2629.53 1348.09 Q2624.62 1356.47 2613.98 1356.47 Q2609.6 1356.47 2606.34 1355.89 Q2603.12 1355.31 2600.28 1353.88 Q2597.48 1352.41 2596.01 1349.56 Q2594.53 1346.72 2594.53 1342.55 L2594.53 1317.41 Q2594.53 1314.36 2593.43 1313.78 Q2592.32 1313.2 2587.1 1313.2 L2587.1 1308.14 L2606.86 1307.24 L2606.86 1344.08 Q2606.86 1346.66 2607.02 1347.98 Q2607.23 1349.25 2608.02 1350.51 Q2608.87 1351.72 2610.66 1352.2 Q2612.45 1352.62 2615.51 1352.62 Q2621.46 1352.62 2625.15 1348.61 Q2628.89 1344.61 2628.89 1338.02 L2628.89 1317.41 Q2628.89 1314.36 2627.73 1313.78 Q2626.63 1313.2 2621.41 1313.2 L2621.41 1308.14 L2641.17 1307.24 L2641.17 1346.56 Q2641.17 1349.61 2642.28 1350.19 Q2643.44 1350.77 2648.66 1350.77 L2648.66 1355.83 Z" fill="#ff0000" fill-rule="nonzero" fill-opacity="1" /><path clip-path="url(#clip370)" d="M2960.43 1170.51 L2940.66 1171.14 L2940.66 1165.87 Q2934.13 1171.14 2925.54 1171.14 Q2913.73 1171.14 2906.67 1164.35 Q2899.66 1157.49 2899.66 1146.64 Q2899.66 1135.36 2907.2 1128.67 Q2914.79 1121.92 2926.75 1121.92 Q2935.03 1121.92 2941.3 1126.82 L2941.3 1105.74 Q2941.3 1102.69 2940.19 1102.11 Q2939.08 1101.53 2933.87 1101.53 L2933.87 1096.47 L2953 1095.62 L2953 1161.24 Q2953 1164.29 2954.1 1164.87 Q2955.21 1165.45 2960.43 1165.45 L2960.43 1170.51 M2940.66 1159.39 L2940.66 1132.41 Q2938.56 1129.67 2935.29 1127.77 Q2932.02 1125.82 2927.81 1125.82 Q2924.7 1125.82 2921.53 1127.14 Q2918.37 1128.4 2916.26 1131.46 Q2914.95 1133.41 2914.26 1136.31 Q2913.63 1139.21 2913.52 1141.16 Q2913.47 1143.11 2913.47 1146.64 Q2913.47 1148.38 2913.47 1149.38 Q2913.52 1150.33 2913.63 1152.28 Q2913.73 1154.17 2913.94 1155.39 Q2914.16 1156.6 2914.63 1158.34 Q2915.1 1160.08 2915.74 1161.18 Q2916.37 1162.29 2917.37 1163.61 Q2918.37 1164.87 2919.64 1165.61 Q2920.95 1166.3 2922.69 1166.82 Q2924.49 1167.3 2926.65 1167.3 Q2934.92 1167.3 2940.66 1159.39 Z" fill="#a52a2a" fill-rule="nonzero" fill-opacity="1" /><path clip-path="url(#clip370)" d="M3033.48 1085.22 L3006.22 1085.22 L3006.22 1082.86 L3033.48 1082.86 L3033.48 1085.22 Z" fill="#a52a2a" fill-rule="nonzero" fill-opacity="1" /><path clip-path="url(#clip370)" d="M3056.51 1170.51 Q3052.4 1170.2 3037.22 1170.2 Q3021.99 1170.2 3017.88 1170.51 L3017.88 1165.45 L3029.53 1165.45 L3029.53 1134.57 L2994.9 1134.57 L2994.9 1165.45 L3006.55 1165.45 L3006.55 1170.51 Q3002.44 1170.2 2987.21 1170.2 Q2972.03 1170.2 2967.92 1170.51 L2967.92 1165.45 L2979.57 1165.45 L2979.57 1101.53 L2967.92 1101.53 L2967.92 1096.47 Q2972.03 1096.78 2987.21 1096.78 Q3002.44 1096.78 3006.55 1096.47 L3006.55 1101.53 L2994.9 1101.53 L2994.9 1129.51 L3029.53 1129.51 L3029.53 1101.53 L3017.88 1101.53 L3017.88 1096.47 Q3021.99 1096.78 3037.22 1096.78 Q3052.4 1096.78 3056.51 1096.47 L3056.51 1101.53 L3044.86 1101.53 L3044.86 1165.45 L3056.51 1165.45 L3056.51 1170.51 Z" fill="#a52a2a" fill-rule="nonzero" fill-opacity="1" /><path clip-path="url(#clip370)" d="M2225.94 60.2649 Q2225.94 46.1677 2220.11 38.1816 Q2214.35 30.1261 2204.21 30.1261 Q2194.07 30.1261 2188.23 38.1816 Q2182.47 46.1677 2182.47 60.2649 Q2182.47 74.362 2188.23 82.4175 Q2194.07 90.4036 2204.21 90.4036 Q2214.35 90.4036 2220.11 82.4175 Q2225.94 74.362 2225.94 60.2649 M2182.47 33.1122 Q2186.5 26.1678 2192.61 22.8345 Q2198.79 19.4317 2207.33 19.4317 Q2221.5 19.4317 2230.32 30.6817 Q2239.21 41.9316 2239.21 60.2649 Q2239.21 78.5981 2230.32 89.848 Q2221.5 101.098 2207.33 101.098 Q2198.79 101.098 2192.61 97.7647 Q2186.5 94.3619 2182.47 87.4175 L2182.47 99.0841 L2169.62 99.0841 L2169.62 -8.97088 L2182.47 -8.97088 L2182.47 33.1122 Z" fill="#000000" fill-rule="nonzero" fill-opacity="1" /><path clip-path="url(#clip370)" d="M2258.37 -8.83199 L2269.48 -8.83199 Q2279.9 7.55681 2285.04 23.2512 Q2290.25 38.9455 2290.25 54.4316 Q2290.25 69.987 2285.04 85.7508 Q2279.9 101.515 2269.48 117.834 L2258.37 117.834 Q2267.61 101.931 2272.12 86.2369 Q2276.71 70.4731 2276.71 54.4316 Q2276.71 38.39 2272.12 22.7651 Q2267.61 7.14014 2258.37 -8.83199 Z" fill="#000000" fill-rule="nonzero" fill-opacity="1" /><path clip-path="url(#clip370)" d="M4229.94 1899.73 L5952.76 1899.73 L5952.76 47.2441 L4229.94 47.2441  Z" fill="#ffffff" fill-rule="evenodd" fill-opacity="1"/>
<defs>
  <clipPath id="clip374">
    <rect x="4229" y="47" width="1724" height="1853"/>
  </clipPath>
</defs>
<polyline clip-path="url(#clip374)" style="stroke:#009af9; stroke-linecap:round; stroke-linejoin:round; stroke-width:4; stroke-opacity:1; fill:none" points="4229.94,1436.61 5952.76,510.365 "/>
<polyline clip-path="url(#clip374)" style="stroke:#a52a2a; stroke-linecap:round; stroke-linejoin:round; stroke-width:12; stroke-opacity:1; fill:none" points="4402.22,1343.98 5401.45,806.762 "/>
<polyline clip-path="url(#clip374)" style="stroke:#a52a2a; stroke-linecap:round; stroke-linejoin:round; stroke-width:12; stroke-opacity:1; fill:none" points="5300.87,809.745 5401.45,806.762 5343.49,889.015 "/>
<polyline clip-path="url(#clip374)" style="stroke:#a52a2a; stroke-linecap:round; stroke-linejoin:round; stroke-width:12; stroke-opacity:1; fill:none" points="5401.45,806.762 4402.22,1343.98 "/>
<polyline clip-path="url(#clip374)" style="stroke:#ff0000; stroke-linecap:round; stroke-linejoin:round; stroke-width:12; stroke-opacity:1; fill:none" points="4402.22,1343.98 4832.92,1112.42 "/>
<polyline clip-path="url(#clip374)" style="stroke:#ff0000; stroke-linecap:round; stroke-linejoin:round; stroke-width:12; stroke-opacity:1; fill:none" points="4732.34,1115.41 4832.92,1112.42 4774.96,1194.68 "/>
<polyline clip-path="url(#clip374)" style="stroke:#ff0000; stroke-linecap:round; stroke-linejoin:round; stroke-width:12; stroke-opacity:1; fill:none" points="4832.92,1112.42 4402.22,1343.98 "/>
<polyline clip-path="url(#clip374)" style="stroke:#0000ff; stroke-linecap:round; stroke-linejoin:round; stroke-width:12; stroke-opacity:1; fill:none" points="5177.49,325.117 5401.45,806.762 "/>
<polyline clip-path="url(#clip374)" style="stroke:#0000ff; stroke-linecap:round; stroke-linejoin:round; stroke-width:12; stroke-opacity:1; fill:none" points="5404.31,706.18 5401.45,806.762 5322.7,744.128 "/>
<polyline clip-path="url(#clip374)" style="stroke:#0000ff; stroke-linecap:round; stroke-linejoin:round; stroke-width:12; stroke-opacity:1; fill:none" points="5401.45,806.762 5177.49,325.117 "/>
<polyline clip-path="url(#clip374)" style="stroke:#000000; stroke-linecap:round; stroke-linejoin:round; stroke-width:12; stroke-opacity:1; fill:none" points="4402.22,1343.98 5177.49,325.117 "/>
<polyline clip-path="url(#clip374)" style="stroke:#000000; stroke-linecap:round; stroke-linejoin:round; stroke-width:12; stroke-opacity:1; fill:none" points="5087.18,369.49 5177.49,325.117 5158.8,423.989 "/>
<polyline clip-path="url(#clip374)" style="stroke:#000000; stroke-linecap:round; stroke-linejoin:round; stroke-width:12; stroke-opacity:1; fill:none" points="5177.49,325.117 4402.22,1343.98 "/>
<circle clip-path="url(#clip374)" cx="4402.22" cy="1343.98" r="21.6" fill="#000000" fill-rule="evenodd" fill-opacity="1" stroke="none"/>
<circle clip-path="url(#clip374)" cx="5177.49" cy="325.117" r="21.6" fill="#000000" fill-rule="evenodd" fill-opacity="1" stroke="none"/>
<circle clip-path="url(#clip374)" cx="5401.45" cy="806.762" r="21.6" fill="#0000ff" fill-rule="evenodd" fill-opacity="1" stroke="#000000" stroke-opacity="1" stroke-width="4"/>
<path clip-path="url(#clip370)" d="M4423.93 1163.34 L4396.67 1163.34 L4396.67 1160.98 L4423.93 1160.98 L4423.93 1163.34 Z" fill="#000000" fill-rule="nonzero" fill-opacity="1" /><path clip-path="url(#clip370)" d="M4446.96 1248.63 Q4442.85 1248.31 4427.67 1248.31 Q4412.44 1248.31 4408.33 1248.63 L4408.33 1243.57 L4419.98 1243.57 L4419.98 1212.69 L4385.35 1212.69 L4385.35 1243.57 L4397 1243.57 L4397 1248.63 Q4392.89 1248.31 4377.66 1248.31 Q4362.48 1248.31 4358.37 1248.63 L4358.37 1243.57 L4370.02 1243.57 L4370.02 1179.64 L4358.37 1179.64 L4358.37 1174.58 Q4362.48 1174.9 4377.66 1174.9 Q4392.89 1174.9 4397 1174.58 L4397 1179.64 L4385.35 1179.64 L4385.35 1207.63 L4419.98 1207.63 L4419.98 1179.64 L4408.33 1179.64 L4408.33 1174.58 Q4412.44 1174.9 4427.67 1174.9 Q4442.85 1174.9 4446.96 1174.58 L4446.96 1179.64 L4435.31 1179.64 L4435.31 1243.57 L4446.96 1243.57 L4446.96 1248.63 Z" fill="#000000" fill-rule="nonzero" fill-opacity="1" /><path clip-path="url(#clip370)" d="M5551.51 763.787 L5524.25 763.787 L5524.25 761.426 L5551.51 761.426 L5551.51 763.787 Z" fill="#0000ff" fill-rule="nonzero" fill-opacity="1" /><path clip-path="url(#clip370)" d="M5552.04 851.614 Q5547.93 851.298 5532.75 851.298 Q5517.52 851.298 5513.41 851.614 L5513.41 846.555 L5525.06 846.555 L5525.06 815.672 L5490.44 815.672 L5490.44 846.555 L5502.08 846.555 L5502.08 851.614 Q5497.97 851.298 5482.74 851.298 Q5467.56 851.298 5463.45 851.614 L5463.45 846.555 L5475.1 846.555 L5475.1 782.629 L5463.45 782.629 L5463.45 777.57 Q5467.56 777.886 5482.74 777.886 Q5497.97 777.886 5502.08 777.57 L5502.08 782.629 L5490.44 782.629 L5490.44 810.613 L5525.06 810.613 L5525.06 782.629 L5513.41 782.629 L5513.41 777.57 Q5517.52 777.886 5532.75 777.886 Q5547.93 777.886 5552.04 777.57 L5552.04 782.629 L5540.4 782.629 L5540.4 846.555 L5552.04 846.555 L5552.04 851.614 Z" fill="#0000ff" fill-rule="nonzero" fill-opacity="1" /><path clip-path="url(#clip370)" d="M5568.18 779.942 Q5568.18 777.254 5569.82 776.147 Q5571.45 774.988 5573.19 774.988 Q5575.35 774.988 5576.72 776.305 Q5578.14 777.57 5578.14 779.942 Q5578.14 780.996 5578.04 781.575 L5574.46 814.144 L5571.98 814.144 L5568.29 781.575 Q5568.18 780.996 5568.18 779.942 Z" fill="#0000ff" fill-rule="nonzero" fill-opacity="1" /><path clip-path="url(#clip370)" d="M5199.1 190.787 L5171.84 190.787 L5171.84 188.426 L5199.1 188.426 L5199.1 190.787 Z" fill="#000000" fill-rule="nonzero" fill-opacity="1" /><path clip-path="url(#clip370)" d="M5214.66 223.058 Q5214.66 229.224 5210.87 233.967 Q5207.13 238.657 5200.86 241.082 Q5194.64 243.506 5187.1 243.506 L5168.02 243.506 L5168.02 271.015 L5179.67 271.015 L5179.67 276.075 Q5175.56 275.759 5160.33 275.759 Q5145.15 275.759 5141.04 276.075 L5141.04 271.015 L5152.69 271.015 L5152.69 207.09 L5141.04 207.09 L5141.04 202.031 L5186.05 202.031 Q5199.17 202.031 5206.92 207.986 Q5214.66 213.941 5214.66 223.058 M5198.12 223.058 Q5198.12 221.319 5198.06 220.476 Q5198.06 219.58 5197.91 217.946 Q5197.8 216.312 5197.48 215.469 Q5197.22 214.573 5196.69 213.256 Q5196.17 211.938 5195.32 211.2 Q5194.53 210.41 5193.32 209.514 Q5192.11 208.618 5190.53 208.196 Q5188.95 207.722 5186.73 207.406 Q5184.57 207.09 5181.94 207.09 L5167.39 207.09 L5167.39 239.079 L5181.83 239.079 Q5184.47 239.079 5186.63 238.763 Q5188.84 238.447 5190.42 237.972 Q5192.06 237.498 5193.27 236.602 Q5194.53 235.706 5195.32 234.968 Q5196.11 234.178 5196.64 232.86 Q5197.22 231.543 5197.48 230.647 Q5197.8 229.751 5197.91 228.17 Q5198.06 226.536 5198.06 225.64 Q5198.12 224.744 5198.12 223.058 Z" fill="#000000" fill-rule="nonzero" fill-opacity="1" /><path clip-path="url(#clip370)" d="M5397.2 524.546 L5369.94 524.546 L5369.94 522.185 L5397.2 522.185 L5397.2 524.546 Z" fill="#0000ff" fill-rule="nonzero" fill-opacity="1" /><path clip-path="url(#clip370)" d="M5410.26 561.832 L5405.2 561.832 Q5404.73 558.248 5404.2 555.876 Q5403.73 553.452 5402.78 550.817 Q5401.83 548.182 5400.35 546.601 Q5398.93 544.967 5396.72 543.597 Q5394.5 542.174 5391.24 541.542 Q5388.02 540.909 5383.75 540.909 L5368.63 540.909 L5368.63 569.947 L5374 569.947 Q5376.59 569.947 5378.48 569.631 Q5380.38 569.262 5381.59 568.472 Q5382.86 567.629 5383.6 566.68 Q5384.33 565.731 5384.7 564.15 Q5385.12 562.517 5385.23 561.041 Q5385.34 559.565 5385.34 557.299 L5390.45 557.299 L5390.45 587.602 L5385.34 587.602 Q5385.34 584.862 5385.12 583.175 Q5384.97 581.489 5384.33 579.75 Q5383.7 578.011 5382.49 577.115 Q5381.28 576.166 5379.17 575.586 Q5377.06 575.007 5374 575.007 L5368.63 575.007 L5368.63 604.15 L5383.17 604.15 L5383.17 609.209 Q5378.43 608.893 5361.41 608.893 Q5345.76 608.893 5341.65 609.209 L5341.65 604.15 L5353.29 604.15 L5353.29 540.909 L5341.65 540.909 L5341.65 535.798 L5406.94 535.798 L5410.26 561.832 Z" fill="#0000ff" fill-rule="nonzero" fill-opacity="1" /><path clip-path="url(#clip370)" d="M4638.18 1294.25 L4637.26 1295.76 Q4631.54 1293.29 4624.42 1289.34 Q4617.3 1293.29 4611.58 1295.76 L4610.7 1294.25 Q4616.93 1288.82 4624.42 1284.66 Q4631.98 1288.86 4638.18 1294.25 Z" fill="#ff0000" fill-rule="nonzero" fill-opacity="1" /><path clip-path="url(#clip370)" d="M4648.66 1355.83 L4629.53 1356.47 L4629.53 1348.09 Q4624.62 1356.47 4613.98 1356.47 Q4609.6 1356.47 4606.34 1355.89 Q4603.12 1355.31 4600.28 1353.88 Q4597.48 1352.41 4596.01 1349.56 Q4594.53 1346.72 4594.53 1342.55 L4594.53 1317.41 Q4594.53 1314.36 4593.43 1313.78 Q4592.32 1313.2 4587.1 1313.2 L4587.1 1308.14 L4606.86 1307.24 L4606.86 1344.08 Q4606.86 1346.66 4607.02 1347.98 Q4607.23 1349.25 4608.02 1350.51 Q4608.87 1351.72 4610.66 1352.2 Q4612.45 1352.62 4615.51 1352.62 Q4621.46 1352.62 4625.15 1348.61 Q4628.89 1344.61 4628.89 1338.02 L4628.89 1317.41 Q4628.89 1314.36 4627.73 1313.78 Q4626.63 1313.2 4621.41 1313.2 L4621.41 1308.14 L4641.17 1307.24 L4641.17 1346.56 Q4641.17 1349.61 4642.28 1350.19 Q4643.44 1350.77 4648.66 1350.77 L4648.66 1355.83 Z" fill="#ff0000" fill-rule="nonzero" fill-opacity="1" /><path clip-path="url(#clip370)" d="M4960.43 1170.51 L4940.66 1171.14 L4940.66 1165.87 Q4934.13 1171.14 4925.54 1171.14 Q4913.73 1171.14 4906.67 1164.35 Q4899.66 1157.49 4899.66 1146.64 Q4899.66 1135.36 4907.2 1128.67 Q4914.79 1121.92 4926.75 1121.92 Q4935.03 1121.92 4941.3 1126.82 L4941.3 1105.74 Q4941.3 1102.69 4940.19 1102.11 Q4939.08 1101.53 4933.87 1101.53 L4933.87 1096.47 L4953 1095.62 L4953 1161.24 Q4953 1164.29 4954.1 1164.87 Q4955.21 1165.45 4960.43 1165.45 L4960.43 1170.51 M4940.66 1159.39 L4940.66 1132.41 Q4938.56 1129.67 4935.29 1127.77 Q4932.02 1125.82 4927.81 1125.82 Q4924.7 1125.82 4921.53 1127.14 Q4918.37 1128.4 4916.26 1131.46 Q4914.95 1133.41 4914.26 1136.31 Q4913.63 1139.21 4913.52 1141.16 Q4913.47 1143.11 4913.47 1146.64 Q4913.47 1148.38 4913.47 1149.38 Q4913.52 1150.33 4913.63 1152.28 Q4913.73 1154.17 4913.94 1155.39 Q4914.16 1156.6 4914.63 1158.34 Q4915.1 1160.08 4915.74 1161.18 Q4916.37 1162.29 4917.37 1163.61 Q4918.37 1164.87 4919.64 1165.61 Q4920.95 1166.3 4922.69 1166.82 Q4924.49 1167.3 4926.65 1167.3 Q4934.92 1167.3 4940.66 1159.39 Z" fill="#a52a2a" fill-rule="nonzero" fill-opacity="1" /><path clip-path="url(#clip370)" d="M5033.48 1085.22 L5006.22 1085.22 L5006.22 1082.86 L5033.48 1082.86 L5033.48 1085.22 Z" fill="#a52a2a" fill-rule="nonzero" fill-opacity="1" /><path clip-path="url(#clip370)" d="M5056.51 1170.51 Q5052.4 1170.2 5037.22 1170.2 Q5021.99 1170.2 5017.88 1170.51 L5017.88 1165.45 L5029.53 1165.45 L5029.53 1134.57 L4994.9 1134.57 L4994.9 1165.45 L5006.55 1165.45 L5006.55 1170.51 Q5002.44 1170.2 4987.21 1170.2 Q4972.03 1170.2 4967.92 1170.51 L4967.92 1165.45 L4979.57 1165.45 L4979.57 1101.53 L4967.92 1101.53 L4967.92 1096.47 Q4972.03 1096.78 4987.21 1096.78 Q5002.44 1096.78 5006.55 1096.47 L5006.55 1101.53 L4994.9 1101.53 L4994.9 1129.51 L5029.53 1129.51 L5029.53 1101.53 L5017.88 1101.53 L5017.88 1096.47 Q5021.99 1096.78 5037.22 1096.78 Q5052.4 1096.78 5056.51 1096.47 L5056.51 1101.53 L5044.86 1101.53 L5044.86 1165.45 L5056.51 1165.45 L5056.51 1170.51 Z" fill="#a52a2a" fill-rule="nonzero" fill-opacity="1" /><path clip-path="url(#clip370)" d="M4234.66 24.2928 L4234.66 36.2372 Q4229.24 33.2511 4223.76 31.7928 Q4218.34 30.265 4212.78 30.265 Q4200.35 30.265 4193.48 38.1816 Q4186.6 46.0288 4186.6 60.2649 Q4186.6 74.5009 4193.48 82.4175 Q4200.35 90.2647 4212.78 90.2647 Q4218.34 90.2647 4223.76 88.8064 Q4229.24 87.2786 4234.66 84.2925 L4234.66 96.098 Q4229.31 98.598 4223.55 99.848 Q4217.85 101.098 4211.39 101.098 Q4193.83 101.098 4183.48 90.0564 Q4173.13 79.0148 4173.13 60.2649 Q4173.13 41.2372 4183.55 30.3345 Q4194.03 19.4317 4212.23 19.4317 Q4218.13 19.4317 4223.76 20.6817 Q4229.38 21.8623 4234.66 24.2928 Z" fill="#000000" fill-rule="nonzero" fill-opacity="1" /><path clip-path="url(#clip370)" d="M4254.87 -8.83199 L4265.98 -8.83199 Q4276.39 7.55681 4281.53 23.2512 Q4286.74 38.9455 4286.74 54.4316 Q4286.74 69.987 4281.53 85.7508 Q4276.39 101.515 4265.98 117.834 L4254.87 117.834 Q4264.1 101.931 4268.62 86.2369 Q4273.2 70.4731 4273.2 54.4316 Q4273.2 38.39 4268.62 22.7651 Q4264.1 7.14014 4254.87 -8.83199 Z" fill="#000000" fill-rule="nonzero" fill-opacity="1" /></svg>
